<svg viewBox="0 0 329.99999999999994 224.10225136141273" class="logo-svg"><defs id="SvgjsDefs3299"></defs><g id="SvgjsG3300" featurekey="41S5F6-0" transform="matrix(6.249836444854736,0,0,6.249836444854736,89.99986671376226,-6.249836588204898)" fill="#a558c8"><g xmlns="http://www.w3.org/2000/svg"><path d="M3.948,5.114c0.213-0.085,0.341-0.303,0.312-0.53c-0.03-0.227-0.21-0.405-0.438-0.432L2.559,4.003   C2.289,3.97,2.037,4.165,2.004,4.438l-2,16c-0.017,0.132,0.021,0.266,0.104,0.371c0.082,0.105,0.203,0.172,0.336,0.188l3.34,0.382   c0.019,0.002,0.038,0.003,0.057,0.003c0.13,0,0.256-0.051,0.35-0.143c0.108-0.105,0.162-0.253,0.148-0.404L3.007,6.64   C2.944,5.976,3.322,5.362,3.948,5.114z"></path><path d="M22.172,5.845c-0.025-0.202-0.17-0.368-0.366-0.421c-0.197-0.055-0.404,0.019-0.528,0.181   c-0.853,1.124-2.231,1.66-3.678,1.271c-0.171-0.044-0.356,0.002-0.483,0.129l-1.556,1.556c-0.566,0.566-1.555,0.566-2.121,0   C13.156,8.277,13,7.901,13,7.5s0.156-0.777,0.439-1.061l0.676-0.676c0.15-0.15,0.189-0.38,0.097-0.572   C14.118,5,13.909,4.887,13.703,4.914l-9.262,1.09c-0.27,0.032-0.465,0.273-0.439,0.543l1.5,16c0.013,0.134,0.079,0.257,0.183,0.341   C5.774,22.961,5.886,23,6,23c0.019,0,0.038-0.001,0.057-0.003l17.5-2c0.133-0.015,0.254-0.083,0.336-0.188   c0.083-0.105,0.12-0.239,0.104-0.371L22.172,5.845z"></path><path d="M14.146,7.146c-0.195,0.195-0.195,0.512,0,0.707C14.244,7.951,14.372,8,14.5,8s0.256-0.049,0.354-0.146l2.27-2.27   C17.519,5.846,17.991,6,18.5,6C19.879,6,21,4.878,21,3.5S19.879,1,18.5,1S16,2.122,16,3.5c0,0.509,0.154,0.981,0.416,1.377   L14.146,7.146z"></path></g></g><g id="SvgjsG3301" featurekey="RGwKHf-0" transform="matrix(3.397857904434204,0,0,3.397857904434204,-5.572488620423837,136.4089809774988)" fill="#0e2a39"><path d="M6.16 17.72 l3.72 0 q0 0.6 -0.08 1.02 q-0.22 1.3 -1.74 1.3 l-4.86 0 q-0.72 0 -1.14 -0.43 t-0.42 -1.17 l0 -12.08 l0.14 -0.14 l1 0 q0.8 0 1.18 0.41 t0.38 1.31 l0 9.86 q0.86 -0.08 1.82 -0.08 z M18.86 16.9 l-0.98 0.02 l-2.8 0 l-0.98 -0.02 l-0.94 3.12 q-0.42 0.1 -1.19 0.1 t-1.25 -0.18 l-0.1 -0.14 l4.46 -13.46 q0.74 -0.1 1.6 -0.1 t1.5 0.12 l4.38 13.46 q-0.58 0.34 -1.39 0.34 t-1.16 -0.3 t-0.59 -1.14 z M14.76 14.780000000000001 l0.9 -0.02 l1.72 0 l0.84 0.02 l-0.6 -2.04 q-0.68 -2.28 -1.08 -3.88 l-0.12 0 q-0.18 0.86 -0.88 3.38 z M33.9 10.46 q0 0.66 -0.19 1.25 t-0.53 1.06 t-0.79 0.82 t-0.99 0.53 q0.52 0.18 0.87 0.62 t0.61 1.14 l0.74 2.02 q0.18 0.5 0.4 0.86 t0.54 0.6 q-0.26 0.36 -0.75 0.58 t-1.11 0.22 q-0.6 0 -0.96 -0.36 t-0.66 -1.22 l-0.84 -2.38 q-0.26 -0.7 -0.66 -1.07 t-1.2 -0.37 l-1.22 0 l0 5.24 q-0.28 0.04 -0.62 0.07 t-0.74 0.03 q-0.74 0 -1.3 -0.1 l0 -13.56 l0.14 -0.12 q1.62 -0.04 2.75 -0.06 t1.81 -0.02 q2.16 0 3.43 1.08 t1.27 3.14 z M27.16 8.28 l0 4.4 q1.04 -0.06 1.84 -0.06 q2.14 0 2.14 -2.16 t-2.14 -2.16 l-1.07 0 t-0.77 -0.02 z M46.96 19.32 q-0.56 0.84 -1.8 0.84 q-0.7 0 -1.05 -0.36 t-0.63 -1.22 l-0.92 -2.62 q-0.36 -1.04 -0.83 -1.47 t-1.27 -0.43 q-0.2 0 -1.12 0.04 l0 5.9 q-0.52 0.1 -1.34 0.1 t-1.34 -0.1 l0 -13.66 q0.52 -0.1 1.34 -0.1 t1.34 0.1 l0 5.5 l0.8 -0.02 q0.32 0 0.48 -0.13 t0.36 -0.49 l2.22 -3.96 q0.3 -0.54 0.6 -0.77 t0.84 -0.23 t1.62 0.08 l0.16 0.2 l-2.72 4.86 q-0.46 0.82 -0.98 1.24 q0.94 0.2 1.44 0.77 t0.88 1.59 l0.94 2.68 q0.14 0.36 0.17 0.43 t0.13 0.31 q0.28 0.56 0.44 0.7 t0.24 0.22 z M63.54 6.220000000000001 l0.14 0.14 l0 13.6 q-0.62 0.14 -1.56 0.14 t-1.64 -0.1 l-3.68 -7.74 q-0.8 -1.76 -1.2 -2.8 l-0.08 0.02 q0.22 2.82 0.22 5.44 l0 5.08 q-0.56 0.1 -1.27 0.1 t-1.23 -0.1 l0 -13.62 q0.58 -0.14 1.52 -0.14 t1.64 0.1 l3.64 7.74 l1.3 2.96 l0.06 -0.02 q-0.2 -2.9 -0.2 -5.48 l0 -3.66 q0 -0.9 0.34 -1.28 t1.14 -0.38 l0.86 0 z M74.92 13.18 q0 -5.02 -2.96 -5.02 t-2.96 5.02 q0 5 2.96 5 t2.96 -5 z M68.32000000000001 19.06 q-2.14 -1.84 -2.14 -5.88 q0 -1.7 0.39 -3.02 t1.14 -2.23 t1.82 -1.39 t2.45 -0.48 q1.36 0 2.43 0.48 t1.81 1.39 t1.13 2.24 t0.39 3.01 t-0.39 3 t-1.13 2.23 t-1.81 1.39 t-2.43 0.48 q-2.18 0 -3.66 -1.22 z M84.52 8.56 l0.02 1.48 l0 9.96 q-0.58 0.1 -1.35 0.1 t-1.35 -0.1 l0 -9.96 l0.02 -1.48 l-1.22 0.02 l-2.22 0 q-0.1 -0.5 -0.1 -1.12 t0.1 -1.12 l9.56 0 q0.14 0.5 0.14 1.09 t-0.34 0.87 t-1.1 0.28 l-0.94 0 l-1.22 -0.02 l0 0 z M92.47999999999999 16.58 l-0.02 1.24 l1.4 -0.04 l4.9 0 q0 0.64 -0.06 0.98 q-0.22 1.28 -1.72 1.28 l-5.62 0 q-0.72 0 -1.13 -0.43 t-0.41 -1.17 l0 -11.96 l0.14 -0.14 l8.34 0 q0.1 0.5 0.1 1.07 t-0.22 1.19 l-5.72 0 l0.02 1.38 l0 2.06 l1.3 -0.02 l3.38 0 q0.16 0.46 0.16 1.1 t-0.16 1.1 l-4.68 0 l0 2.36 z"></path></g><g id="SvgjsG3302" featurekey="UxezYZ-0" transform="matrix(0.6260144114494324,0,0,0.6260144114494324,56.248782970643724,211.3941568262566)" fill="#a558c8"><path d="M15.78 6 l0 14 l-1.7 0 l0 -10.28 l-4.92 10.28 l-1.36 0 l-4.9 -10.26 l0 10.26 l-1.7 0 l0 -14 l1.64 0 l5.66 11.72 l5.64 -11.72 l1.64 0 z M40.504000000000005 20 l-1.44 -3.3 l-7.48 0 l-1.44 3.3 l-1.76 0 l6.24 -14 l1.38 0 l6.26 14 l-1.76 0 z M32.204 15.3 l6.24 0 l-3.12 -7.12 z M64.02799999999999 20 l-5.42 -6.54 l-2.04 2.22 l0 4.32 l-1.7 0 l0 -14 l1.7 0 l0 7.5 l6.82 -7.5 l2.08 0 l-5.82 6.34 l6.34 7.66 l-1.96 0 z M80.35199999999999 18.44 l6.66 0 l0 1.56 l-7.06 0 l-1.26 0 l0 -14 l1.66 0 l6.48 0 l0 1.56 l-6.48 0 l0 4.64 l5.04 0 l0 1.52 l-5.04 0 l0 4.72 z M126.88 6 l1.66 0 l0 14 l-1.28 0 l-8.48 -10.96 l0 10.96 l-1.66 0 l0 -14 l1.28 0 l8.48 10.98 l0 -10.98 z M148.80399999999997 5.800000000000001 c3.64 0 7.16 2.96 7.16 7.2 s-3.52 7.2 -7.16 7.2 c-3.66 0 -7.16 -2.96 -7.16 -7.2 s3.5 -7.2 7.16 -7.2 z M148.80399999999997 18.62 c2.74 0 5.44 -2.32 5.44 -5.62 s-2.7 -5.62 -5.44 -5.62 c-2.76 0 -5.44 2.32 -5.44 5.62 s2.68 5.62 5.44 5.62 z M178.10799999999998 6 l0 1.56 l-3.88 0 l0 12.44 l-1.66 0 l0 -12.44 l-3.9 0 l0 -1.56 l9.44 0 z M192.772 18.44 l6.66 0 l0 1.56 l-7.06 0 l-1.26 0 l0 -14 l1.66 0 l6.48 0 l0 1.56 l-6.48 0 l0 4.64 l5.04 0 l0 1.52 l-5.04 0 l0 4.72 z M233.83999999999997 5.76 c2.18 0 3.78 1.44 4.38 2.94 l-1.26 0.68 c-0.64 -1.28 -1.66 -2.12 -3.12 -2.12 c-1.54 0 -2.6 0.88 -2.6 2.1 c0 1.14 0.72 1.86 2.24 2.44 l1.02 0.38 c2.52 0.94 4.1 2.02 4.1 4.24 c0 2.4 -2.3 3.88 -4.68 3.88 s-4.34 -1.44 -4.88 -3.44 l1.34 -0.64 c0.48 1.48 1.74 2.56 3.54 2.56 c1.6 0 2.96 -0.92 2.96 -2.34 c0 -1.6 -1.12 -2.2 -2.78 -2.84 l-1.04 -0.4 c-2.12 -0.8 -3.48 -1.9 -3.48 -3.88 c0 -2.04 1.8 -3.56 4.26 -3.56 z M253.164 6 l0 14 l-1.66 0 l0 -14 l1.66 0 z M281.14799999999997 6 l0 14 l-1.7 0 l0 -10.28 l-4.92 10.28 l-1.36 0 l-4.9 -10.26 l0 10.26 l-1.7 0 l0 -14 l1.64 0 l5.66 11.72 l5.64 -11.72 l1.64 0 z M299.11199999999997 6 c3.14 0 4.96 1.92 4.96 4.52 s-1.82 4.44 -4.96 4.44 l-2.9 0 l0 5.04 l-1.66 0 l0 -14 l4.56 0 z M299.072 13.48 c2.02 0 3.34 -1.04 3.34 -2.96 c0 -1.94 -1.32 -2.96 -3.34 -2.96 l-2.86 0 l0 5.92 l2.86 0 z M318.63599999999997 18.44 l6.28 0 l0 1.56 l-7.94 0 l0 -14 l1.66 0 l0 12.44 z M339.58 18.44 l6.66 0 l0 1.56 l-7.06 0 l-1.26 0 l0 -14 l1.66 0 l6.48 0 l0 1.56 l-6.48 0 l0 4.64 l5.04 0 l0 1.52 l-5.04 0 l0 4.72 z"></path></g></svg>